<svg id="svg" version="1.1" width="411" height="406" xmlns="http://www.w3.org/2000/svg"><path d="M199.743 21.750 C 197.734 23.993,196.000 33.459,196.000 42.184 C 196.000 50.256,195.150 50.668,188.444 45.852 C 184.792 43.230,183.805 42.917,182.530 43.975 C 180.058 46.027,180.652 47.200,187.103 53.003 C 192.688 58.026,193.295 58.976,194.074 63.906 C 195.128 70.571,194.603 71.537,191.180 69.232 C 183.477 64.046,178.714 63.648,178.194 68.146 C 177.952 70.232,178.771 71.503,182.057 74.146 C 194.259 83.961,194.000 83.604,194.000 90.616 C 194.000 94.127,193.618 97.000,193.150 97.000 C 192.269 97.000,183.882 91.207,183.000 89.990 C 181.656 88.134,178.274 87.126,177.153 88.247 C 174.600 90.800,175.993 94.187,182.335 100.847 C 192.810 111.847,192.000 108.378,192.000 142.223 C 192.000 158.600,191.721 172.000,191.380 172.000 C 190.792 172.000,174.564 157.174,159.647 143.008 C 155.878 139.429,152.336 135.375,151.777 134.000 C 150.207 130.136,148.002 117.985,148.001 113.184 C 148.000 107.094,145.370 102.537,142.494 103.641 C 141.841 103.891,140.716 107.899,139.993 112.548 C 139.269 117.197,138.413 120.987,138.089 120.972 C 137.765 120.956,135.282 118.883,132.572 116.366 L 127.644 111.788 128.822 106.084 C 129.470 102.947,130.000 98.544,130.000 96.301 C 130.000 91.406,127.356 87.542,124.704 88.560 C 122.792 89.294,120.000 95.009,120.000 98.188 C 120.000 99.257,119.530 101.010,118.955 102.084 C 117.992 103.884,117.642 103.684,114.455 99.509 C 111.105 95.120,111.000 94.709,111.000 85.960 C 111.000 78.828,110.683 76.816,109.487 76.357 C 107.217 75.486,105.139 77.744,103.958 82.366 C 103.377 84.640,102.702 87.090,102.459 87.810 C 101.986 89.212,99.693 87.766,88.090 78.750 C 79.245 71.876,73.000 72.253,73.000 79.661 C 73.000 82.913,77.210 88.999,85.687 98.000 C 89.698 102.260,89.754 102.807,86.250 103.526 C 77.454 105.332,75.872 106.084,76.188 108.309 C 76.480 110.360,77.148 110.532,86.614 111.000 C 96.239 111.476,96.910 111.656,100.500 114.729 C 104.526 118.174,104.559 118.118,97.500 119.926 C 92.269 121.266,89.000 123.633,89.000 126.081 C 89.000 129.091,93.232 130.243,99.817 129.026 C 110.335 127.082,112.045 127.461,117.443 132.942 C 122.992 138.576,123.425 138.123,111.000 139.684 C 105.415 140.385,104.457 140.803,104.193 142.653 C 103.643 146.515,107.384 148.000,117.657 148.000 C 122.724 148.000,128.137 148.472,129.685 149.048 C 132.156 149.968,173.000 189.576,173.000 191.052 C 173.000 191.736,137.555 194.025,127.200 194.011 C 117.915 193.997,114.908 192.522,101.500 181.399 C 95.602 176.506,93.028 175.528,90.642 177.273 C 89.028 178.453,89.290 179.085,93.944 185.233 C 96.725 188.906,99.000 192.381,99.000 192.956 C 99.000 193.581,96.223 194.000,92.082 194.000 C 85.310 194.000,85.119 193.929,83.089 190.644 C 80.048 185.724,71.234 177.809,69.221 178.191 C 66.093 178.783,66.496 184.407,70.035 189.550 C 71.772 192.075,72.910 194.424,72.564 194.769 C 72.218 195.115,69.812 195.270,67.217 195.113 C 62.924 194.853,61.894 194.243,55.758 188.328 C 52.050 184.753,48.450 182.026,47.758 182.268 C 45.712 182.983,46.462 189.798,48.868 192.360 C 50.041 193.608,51.000 195.104,51.000 195.684 C 51.000 196.711,36.599 199.000,30.137 199.000 C 23.794 199.000,19.631 206.546,23.862 210.375 C 26.103 212.403,35.022 213.986,44.250 213.994 C 52.249 214.001,52.659 214.863,47.852 221.556 C 45.230 225.208,44.917 226.195,45.975 227.470 C 46.673 228.311,47.700 229.000,48.256 229.000 C 48.813 229.000,52.056 226.142,55.464 222.649 C 61.049 216.926,62.147 216.244,66.579 215.744 C 72.008 215.132,73.581 215.582,72.155 217.339 C 69.785 220.261,67.000 226.287,67.000 228.495 C 67.000 229.927,67.846 231.382,69.054 232.029 C 70.823 232.976,71.619 232.586,74.804 229.211 C 76.837 227.057,80.219 223.203,82.320 220.647 L 86.140 216.000 92.570 216.000 C 96.372 216.000,99.000 216.427,99.000 217.044 C 99.000 217.619,96.750 221.060,94.001 224.693 C 90.119 229.820,89.252 231.599,90.123 232.648 C 92.441 235.441,96.046 234.120,102.337 228.174 C 113.963 217.184,110.587 218.000,144.404 218.000 C 160.682 218.000,174.000 218.291,174.000 218.646 C 174.000 220.587,138.915 256.951,135.645 258.399 C 131.483 260.243,121.837 262.000,115.880 262.000 C 110.512 262.000,106.403 263.509,105.522 265.803 C 104.615 268.167,105.910 268.815,114.003 270.046 C 118.126 270.674,121.820 271.487,122.210 271.854 C 122.601 272.220,120.917 274.703,118.467 277.371 C 114.304 281.905,113.770 282.182,110.257 281.628 C 98.283 279.739,94.533 279.743,92.189 281.643 C 90.617 282.918,90.096 284.087,90.560 285.296 C 91.294 287.208,97.009 290.000,100.188 290.000 C 101.257 290.000,103.028 290.480,104.123 291.066 C 105.987 292.063,105.838 292.352,101.807 295.556 C 97.604 298.898,97.275 298.981,88.219 298.990 C 80.509 298.998,78.830 299.280,78.302 300.656 C 77.431 302.925,81.034 305.661,85.998 306.500 C 90.733 307.300,91.571 308.277,89.602 310.703 C 77.493 325.618,75.888 328.141,76.193 331.784 C 76.418 334.472,77.135 335.769,78.875 336.631 C 82.507 338.432,85.938 336.718,95.595 328.275 C 102.233 322.472,104.420 321.054,105.094 322.118 C 105.575 322.878,105.979 324.175,105.990 325.000 C 106.002 325.825,106.487 328.215,107.069 330.311 C 107.931 333.414,108.534 334.065,110.314 333.811 C 112.359 333.520,112.532 332.846,113.000 323.338 C 113.459 314.012,113.727 312.922,116.258 310.088 C 117.774 308.390,119.422 307.000,119.920 307.000 C 120.417 307.000,121.116 308.725,121.472 310.834 C 122.363 316.110,125.506 321.000,128.007 321.000 C 131.312 321.000,132.483 317.031,131.145 310.367 C 129.074 300.055,129.475 297.932,134.407 293.092 C 136.830 290.713,139.239 289.030,139.760 289.352 C 140.281 289.674,141.006 293.158,141.372 297.094 C 142.131 305.262,142.427 306.000,144.944 306.000 C 148.449 306.000,150.000 301.737,150.000 292.100 C 150.000 287.167,150.472 281.863,151.048 280.315 C 151.968 277.844,191.576 237.000,193.052 237.000 C 193.736 237.000,196.025 272.443,196.011 282.790 C 195.997 292.199,193.032 298.132,182.665 309.490 C 179.218 313.267,177.844 316.840,179.005 319.009 C 179.591 320.104,180.256 321.000,180.482 321.000 C 180.709 321.000,183.867 318.750,187.500 316.000 C 191.133 313.250,194.532 311.000,195.053 311.000 C 195.574 311.000,195.990 314.038,195.978 317.750 L 195.957 324.500 189.516 329.728 C 182.360 335.536,179.489 339.225,180.359 341.492 C 181.291 343.922,186.592 343.258,191.713 340.071 C 194.301 338.459,196.678 337.301,196.994 337.496 C 197.311 337.692,197.329 340.158,197.035 342.977 C 196.560 347.525,195.879 348.745,190.984 353.801 C 182.646 362.414,182.499 362.661,184.921 363.958 C 186.937 365.037,190.778 363.612,196.202 359.775 C 197.138 359.113,198.137 358.804,198.422 359.089 C 198.707 359.374,199.590 365.195,200.383 372.024 C 201.613 382.607,202.150 384.703,204.024 386.220 C 206.315 388.075,209.652 388.508,211.687 387.214 C 213.891 385.813,215.138 380.550,215.726 370.159 C 216.130 363.026,216.716 359.662,217.615 359.317 C 218.332 359.042,220.948 360.275,223.429 362.056 C 227.189 364.756,228.194 365.084,229.470 364.025 C 231.942 361.973,231.348 360.800,224.897 354.997 C 219.300 349.963,218.706 349.032,217.919 344.051 C 217.446 341.058,217.284 338.383,217.558 338.108 C 217.833 337.833,220.408 338.828,223.279 340.320 C 229.147 343.367,232.173 343.702,233.996 341.505 C 235.612 339.558,233.512 336.209,228.271 332.375 C 226.197 330.859,223.037 328.265,221.250 326.613 C 218.245 323.834,218.000 323.133,218.000 317.304 C 218.000 313.837,218.382 311.000,218.850 311.000 C 219.317 311.000,221.628 312.462,223.986 314.250 C 231.975 320.309,233.297 320.998,234.699 319.835 C 237.509 317.502,236.086 313.896,229.693 307.153 C 219.293 296.183,220.000 299.217,220.000 265.535 C 220.000 249.291,220.338 236.020,220.750 236.045 C 222.392 236.144,258.594 270.809,259.925 273.557 C 261.946 277.730,263.924 287.591,263.965 293.703 C 264.004 299.469,265.469 303.582,267.803 304.478 C 270.167 305.385,270.815 304.090,272.046 295.997 C 272.674 291.874,273.494 288.174,273.868 287.775 C 274.243 287.377,276.714 289.155,279.360 291.728 C 283.748 295.993,284.122 296.716,283.603 299.952 C 281.715 311.742,281.741 315.465,283.729 317.917 C 284.977 319.456,286.278 320.107,287.313 319.710 C 288.915 319.095,292.000 312.996,292.000 310.443 C 292.000 309.721,292.451 307.943,293.003 306.492 L 294.006 303.854 297.503 308.436 C 300.902 312.889,301.000 313.270,301.000 322.040 C 301.000 329.235,301.311 331.182,302.537 331.653 C 304.992 332.595,307.857 329.139,308.571 324.373 C 308.934 321.954,309.516 319.800,309.865 319.586 C 310.539 319.174,313.977 321.540,323.905 329.250 C 330.769 334.580,335.361 335.468,338.443 332.063 C 341.132 329.092,339.158 324.780,330.518 314.750 C 325.297 308.688,323.421 305.847,324.277 305.292 C 324.950 304.857,327.750 304.040,330.500 303.478 C 334.880 302.584,335.500 302.150,335.500 299.978 C 335.500 297.538,335.347 297.492,325.433 297.000 C 315.995 296.531,315.121 296.304,311.458 293.359 L 307.551 290.218 311.525 289.115 C 313.711 288.508,316.209 288.009,317.076 288.006 C 319.353 287.998,323.242 283.496,322.828 281.347 C 322.346 278.843,318.313 278.310,308.233 279.418 L 299.864 280.337 295.182 275.642 C 289.903 270.347,290.319 269.137,297.500 268.897 C 304.591 268.660,307.475 267.665,307.807 265.340 C 308.385 261.298,304.693 260.000,292.624 260.000 L 281.693 260.000 260.346 238.801 C 248.606 227.142,239.000 217.335,239.000 217.009 C 239.000 216.372,276.684 213.963,286.290 213.986 C 291.908 214.000,297.484 215.974,301.780 219.471 C 302.726 220.241,306.231 223.121,309.569 225.871 C 316.290 231.408,320.013 232.894,321.793 230.750 C 322.693 229.665,321.876 227.915,317.969 222.556 C 315.236 218.807,313.000 215.349,313.000 214.870 C 313.000 214.392,316.038 214.010,319.750 214.022 L 326.500 214.043 331.728 220.484 C 334.603 224.026,338.087 227.666,339.470 228.572 C 345.361 232.432,346.903 226.392,342.000 218.661 C 340.350 216.059,339.000 213.721,339.000 213.465 C 339.000 213.209,341.328 213.000,344.174 213.000 C 349.241 213.000,349.504 213.150,356.784 220.210 C 363.614 226.832,364.327 227.274,365.530 225.629 C 367.083 223.504,365.834 218.732,362.861 215.436 C 359.886 212.135,360.610 211.333,367.250 210.580 C 386.478 208.400,386.211 208.457,388.128 206.090 C 394.013 198.823,386.406 194.000,369.057 194.000 C 359.798 194.000,359.563 193.675,364.040 187.067 C 367.232 182.357,367.340 181.248,364.767 179.625 C 363.466 178.804,361.927 179.891,356.827 185.230 C 350.956 191.375,350.121 191.897,345.250 192.461 C 339.124 193.170,338.916 192.706,342.570 186.470 C 345.740 181.062,345.579 176.653,342.195 176.173 C 339.364 175.772,337.759 177.058,332.929 183.596 C 326.846 191.830,326.573 192.000,319.429 192.000 C 315.893 192.000,313.000 191.650,313.000 191.222 C 313.000 190.386,315.757 186.416,320.370 180.609 C 322.731 177.637,323.020 176.729,321.998 175.498 C 319.499 172.487,316.032 173.785,309.153 180.307 C 298.181 190.708,301.224 190.000,267.478 190.000 C 238.675 190.000,237.922 189.950,239.209 188.113 C 240.381 186.439,250.223 175.664,267.000 157.687 C 270.025 154.446,273.850 151.093,275.500 150.237 C 279.124 148.357,290.907 146.003,296.703 146.001 C 303.148 145.999,308.274 142.870,306.509 140.014 C 306.235 139.571,302.184 138.639,297.506 137.943 C 292.827 137.247,289.000 136.396,289.000 136.051 C 289.000 135.707,291.222 133.236,293.937 130.562 L 298.875 125.699 304.604 126.849 C 307.755 127.482,312.009 128.000,314.056 128.000 C 318.596 128.000,322.420 125.257,321.440 122.704 C 320.706 120.792,314.991 118.000,311.812 118.000 C 310.743 118.000,308.990 117.530,307.916 116.955 C 306.116 115.992,306.316 115.642,310.491 112.455 C 314.880 109.105,315.291 109.000,324.040 109.000 C 331.235 109.000,333.182 108.689,333.653 107.463 C 334.593 105.013,331.253 102.265,326.463 101.547 C 324.034 101.182,321.855 100.573,321.622 100.192 C 321.117 99.370,328.945 88.442,334.250 82.562 C 336.258 80.337,336.594 73.994,334.800 72.200 C 332.456 69.856,325.365 71.172,322.500 74.482 C 319.852 77.542,307.883 87.216,307.374 86.708 C 307.056 86.389,306.279 83.513,305.648 80.315 C 304.616 75.085,304.248 74.500,302.000 74.500 C 299.533 74.500,299.493 74.633,299.000 84.500 C 298.546 93.570,298.234 94.848,295.639 98.240 C 294.065 100.297,292.417 101.758,291.976 101.485 C 291.535 101.212,290.855 99.079,290.465 96.745 C 289.526 91.124,286.435 86.796,283.642 87.195 C 281.575 87.489,281.510 87.900,281.793 99.000 L 282.086 110.500 277.115 115.392 L 272.144 120.283 271.631 116.892 C 271.349 115.026,270.755 111.030,270.309 108.011 C 269.369 101.630,266.919 100.163,263.856 104.145 C 262.395 106.044,262.040 108.397,262.022 116.300 C 262.007 122.845,261.524 126.996,260.567 128.800 C 258.988 131.776,219.321 171.681,218.665 170.954 C 218.440 170.704,217.683 159.025,216.983 145.000 C 215.496 115.233,215.218 116.494,226.398 102.355 C 233.595 93.254,234.561 91.150,232.709 88.617 C 231.508 86.974,230.873 87.259,224.330 92.379 C 220.437 95.425,216.970 97.636,216.626 97.292 C 216.281 96.948,216.000 93.651,216.000 89.966 C 216.000 83.344,216.044 83.236,219.750 80.714 C 227.655 75.335,232.711 69.295,231.641 66.508 C 230.680 64.003,225.252 64.730,220.500 68.000 C 218.102 69.650,215.861 71.000,215.520 71.000 C 215.180 71.000,215.002 68.638,215.126 65.750 C 215.340 60.766,215.678 60.160,221.799 53.792 C 226.038 49.382,228.044 46.556,227.655 45.542 C 226.772 43.243,222.944 43.674,218.714 46.548 C 216.652 47.950,214.581 48.859,214.112 48.569 C 213.249 48.036,212.483 43.088,211.349 30.715 C 210.832 25.082,210.302 23.596,208.228 21.965 C 205.135 19.532,201.805 19.448,199.743 21.750 " stroke="none" fill="black" fill-rule="evenodd"/></svg>